<svg xmlns="http://www.w3.org/2000/svg" xmlns:xlink="http://www.w3.org/1999/xlink" version="1.1" baseProfile="full" width="345" height="320" style="position:absolute;left:0;top:0;user-select:none"><rect width="345" height="320" x="0" y="0" id="0" fill="none" fill-opacity="1"></rect><g><path d="M69 281.5L338.1 281.5" fill="none" stroke="#E0E6F1"></path><path d="M69 273.5L338.1 273.5" fill="none" stroke="#E0E6F1"></path><path d="M69 242.5L338.1 242.5" fill="none" stroke="#E0E6F1"></path><path d="M69 212.5L338.1 212.5" fill="none" stroke="#E0E6F1"></path><path d="M69 181.5L338.1 181.5" fill="none" stroke="#E0E6F1"></path><path d="M69 150.5L338.1 150.5" fill="none" stroke="#E0E6F1"></path><path d="M69 119.5L338.1 119.5" fill="none" stroke="#E0E6F1"></path><path d="M69 88.5L338.1 88.5" fill="none" stroke="#E0E6F1"></path><path d="M69 57.5L338.1 57.5" fill="none" stroke="#E0E6F1"></path><path d="M69.5 57.6L69.5 281.6" fill="none" stroke="#E0E6F1"></path><path d="M136.5 57.6L136.5 281.6" fill="none" stroke="#E0E6F1"></path><path d="M203.5 57.6L203.5 281.6" fill="none" stroke="#E0E6F1"></path><path d="M271.5 57.6L271.5 281.6" fill="none" stroke="#E0E6F1"></path><path d="M338.5 57.6L338.5 281.6" fill="none" stroke="#E0E6F1"></path><path d="M69.5 281.6L69.5 57.6" fill="none" stroke="#6E7079" stroke-linecap="round"></path><text dominant-baseline="central" text-anchor="middle" style="font-size:18px;font-family:Microsoft YaHei;" y="-9" transform="matrix(0,-1,1,0,24,169.6)" fill="#111111">charges</text><path d="M69 281.5L338.1 281.5" fill="none" stroke="#6E7079" stroke-linecap="round"></path><text dominant-baseline="central" text-anchor="middle" style="font-size:18px;font-family:Microsoft YaHei;" y="9" transform="translate(203.55 299.6)" fill="#111111">region</text><path d="M69 273.5L64 273.5" fill="none" stroke="#6E7079"></path><path d="M69 242.5L64 242.5" fill="none" stroke="#6E7079"></path><path d="M69 212.5L64 212.5" fill="none" stroke="#6E7079"></path><path d="M69 181.5L64 181.5" fill="none" stroke="#6E7079"></path><path d="M69 150.5L64 150.5" fill="none" stroke="#6E7079"></path><path d="M69 119.5L64 119.5" fill="none" stroke="#6E7079"></path><path d="M69 88.5L64 88.5" fill="none" stroke="#6E7079"></path><path d="M69 57.5L64 57.5" fill="none" stroke="#6E7079"></path><path d="M69.5 281.6L69.5 286.6" fill="none" stroke="#6E7079"></path><path d="M136.5 281.6L136.5 286.6" fill="none" stroke="#6E7079"></path><path d="M203.5 281.6L203.5 286.6" fill="none" stroke="#6E7079"></path><path d="M271.5 281.6L271.5 286.6" fill="none" stroke="#6E7079"></path><path d="M338.5 281.6L338.5 286.6" fill="none" stroke="#6E7079"></path><text dominant-baseline="central" text-anchor="end" style="font-size:12px;font-family:Microsoft YaHei;" transform="translate(61 273.5688)" fill="#6E7079">11000</text><text dominant-baseline="central" text-anchor="end" style="font-size:12px;font-family:Microsoft YaHei;" transform="translate(61 242.7161)" fill="#6E7079">12000</text><text dominant-baseline="central" text-anchor="end" style="font-size:12px;font-family:Microsoft YaHei;" transform="translate(61 211.8634)" fill="#6E7079">13000</text><text dominant-baseline="central" text-anchor="end" style="font-size:12px;font-family:Microsoft YaHei;" transform="translate(61 181.0108)" fill="#6E7079">14000</text><text dominant-baseline="central" text-anchor="end" style="font-size:12px;font-family:Microsoft YaHei;" transform="translate(61 150.1581)" fill="#6E7079">15000</text><text dominant-baseline="central" text-anchor="end" style="font-size:12px;font-family:Microsoft YaHei;" transform="translate(61 119.3054)" fill="#6E7079">16000</text><text dominant-baseline="central" text-anchor="end" style="font-size:12px;font-family:Microsoft YaHei;" transform="translate(61 88.4527)" fill="#6E7079">17000</text><text dominant-baseline="central" text-anchor="end" style="font-size:12px;font-family:Microsoft YaHei;" transform="translate(61 57.6)" fill="#6E7079">18000</text><text dominant-baseline="central" text-anchor="middle" style="font-size:10px;font-family:Microsoft YaHei;" y="5" transform="translate(102.6375 289.6)" fill="#6E7079">northeast</text><text dominant-baseline="central" text-anchor="middle" style="font-size:10px;font-family:Microsoft YaHei;" y="5" transform="translate(169.9125 289.6)" fill="#6E7079">northwest</text><text dominant-baseline="central" text-anchor="middle" style="font-size:10px;font-family:Microsoft YaHei;" y="5" transform="translate(237.1875 289.6)" fill="#6E7079">southeast</text><text dominant-baseline="central" text-anchor="middle" style="font-size:10px;font-family:Microsoft YaHei;" y="5" transform="translate(304.4625 289.6)" fill="#6E7079">southwest</text><path d="M82.6375 281.6l40 0l0 -209.053l-40 0Z" fill="#74cbed"></path><path d="M149.9125 281.6l40 0l0 -132.5089l-40 0Z" fill="#74cbed"></path><path d="M217.1875 281.6l40 0l0 -131.2089l-40 0Z" fill="#74cbed"></path><path d="M284.4625 281.6l40 0l0 -201.0908l-40 0Z" fill="#74cbed"></path><path d="M-5 -5l10 0l0 10l-10 0Z" transform="translate(340 5)" fill="none" stroke="#ccc" stroke-width="0"></path></g></svg>