<svg xmlns="http://www.w3.org/2000/svg" viewBox="0 0 18 16.87"><g id="图层_2" data-name="图层 2"><g id="Layer_1" data-name="Layer 1"><path d="M9.23,8.41l-.41.44a1.13,1.13,0,0,0-.55-.15,1.15,1.15,0,0,0-.41.08L6.28,6.45l0,0a.92.92,0,0,0,.29-.67.95.95,0,0,0-1.89,0,1,1,0,0,0,.15.51L3,8.08a.92.92,0,0,0-.56-.19.95.95,0,0,0,0,1.89,1,1,0,0,0,.95-.95,1,1,0,0,0-.07-.35L5.2,6.61a.9.9,0,0,0,.4.09.78.78,0,0,0,.22,0l0,.06L7.44,9.06a1.1,1.1,0,0,0-.3.76,1.13,1.13,0,1,0,2.26,0,1.07,1.07,0,0,0-.2-.63l.41-.43-.38-.35Zm-6.8.86a.43.43,0,1,1,.43-.43A.43.43,0,0,1,2.43,9.27ZM5.61,6.19a.44.44,0,0,1-.44-.43.44.44,0,1,1,.44.43Zm7.22-2.65A1.23,1.23,0,0,0,11.6,4.76a1.2,1.2,0,0,0,.17.6L10.31,6.94l.57.52,1.47-1.58a1.29,1.29,0,0,0,.48.1,1.22,1.22,0,1,0,0-2.44Zm0,1.67a.45.45,0,1,1,.45-.45A.45.45,0,0,1,12.83,5.21Z"/><path d="M17.87,10.8,16.09,8.23a4.78,4.78,0,1,0-3.26,1.29,4.9,4.9,0,0,0,2-.43l1.79,2.58a.75.75,0,0,0,1,.19l0,0a.74.74,0,0,0,.19-1Zm-5-2.21a3.83,3.83,0,1,1,3.84-3.83A3.84,3.84,0,0,1,12.83,8.59Z"/><path d="M14.22,12.66a.52.52,0,0,1-.52.52H1.55A.52.52,0,0,1,1,12.66V2.58a.52.52,0,0,1,.52-.52H7.4a6.71,6.71,0,0,1,.51-.86H1.1A1.11,1.11,0,0,0,0,2.3V13.15a1.1,1.1,0,0,0,1.1,1.1H6.84v1.37H3.72a.6.6,0,0,0-.61.6v.05a.6.6,0,0,0,.61.6h7.81a.6.6,0,0,0,.61-.6v-.05a.6.6,0,0,0-.61-.6H8.41V14.25h5.73a1.11,1.11,0,0,0,1.11-1.1V10.93a7,7,0,0,1-1,.25v1.48Z"/></g></g></svg>