<svg xmlns="http://www.w3.org/2000/svg" viewBox="0 0 12.78 20.46"><defs><style>.cls-1{fill:#333;}</style></defs><g id="图层_2" data-name="图层 2"><g id="Layer_1" data-name="Layer 1"><path class="cls-1" d="M6.39,0C3.31,0,0,1.3,0,4.16V16.3c0,2.86,3.31,4.16,6.39,4.16s6.39-1.3,6.39-4.16V4.16C12.78,1.3,9.47,0,6.39,0Zm5.47,16.3c0,1.59-2.45,2.88-5.47,2.88S.91,17.89.91,16.3V13.91C1.86,15.27,4.13,16,6.39,16s4.53-.71,5.47-2.07Zm0-3.83h0v0c0,1.57-2.45,2.85-5.47,2.85S.91,14.06.91,12.49v0h0V10.08c1,1.36,3.22,2.07,5.48,2.07s4.53-.71,5.47-2.07Zm0-3.84h0v0c0,1.58-2.45,2.86-5.47,2.86S.91,10.23.91,8.65v0h0V6.43A7.72,7.72,0,0,0,6.39,8.31c2.09,0,4.28-.6,5.47-1.88ZM6.39,7C3.36,7,.91,5.74.91,4.16S3.36,1.28,6.39,1.28s5.47,1.29,5.47,2.88S9.41,7,6.39,7Z"/><path class="cls-1" d="M10,16.62c0,.35.2.64.46.64S11,17,11,16.62s-.2-.64-.45-.64S10,16.27,10,16.62Z"/><path class="cls-1" d="M10,12.79c0,.35.2.64.46.64s.45-.29.45-.64-.2-.64-.45-.64S10,12.43,10,12.79Z"/><path class="cls-1" d="M10,9c0,.35.2.64.46.64S11,9.3,11,9s-.2-.64-.45-.64S10,8.6,10,9Z"/></g></g></svg>