<?xml version="1.0" standalone="no"?>
<!DOCTYPE svg PUBLIC "-//W3C//DTD SVG 1.1//EN" "http://www.w3.org/Graphics/SVG/1.1/DTD/svg11.dtd"><svg t="1648651704943"
  class="icon" viewBox="0 0 1024 1024" version="1.1" xmlns="http://www.w3.org/2000/svg" p-id="2227"
  xmlns:xlink="http://www.w3.org/1999/xlink" width="25" height="25">
  <defs>
    <style type="text/css"></style>
  </defs>
  <path
    d="M510.543324 382.478088c-70.616314 0-128.044258 57.427944-128.044258 128.043235 0 70.621431 57.427944 128.049375 128.044258 128.049375 70.620407 0 128.048351-57.427944 128.048351-128.049375C638.591675 439.906032 581.163731 382.478088 510.543324 382.478088L510.543324 382.478088zM510.543324 574.550615c-35.30611 0-64.022129-28.717042-64.022129-64.029292 0-35.305087 28.716019-64.021106 64.022129-64.021106 35.310204 0 64.026222 28.716019 64.026222 64.021106C574.569546 545.833573 545.853527 574.550615 510.543324 574.550615L510.543324 574.550615zM510.543324 574.550615"
    p-id="2228" fill="#333"></path>
  <path
    d="M926.692279 478.514351l-0.928139 0C910.108578 274.217409 746.852354 110.955044 542.556435 95.305623l0-0.927115c0-17.672498-14.341636-32.014134-32.013111-32.014134-17.667382 0-32.009018 14.341636-32.009018 32.014134l0 0.927115c-204.296943 15.649422-367.558283 178.910763-383.206682 383.207705l-0.928139 0c-17.672498 0-32.014134 14.340613-32.014134 32.006971 0 17.673521 14.341636 32.015158 32.014134 32.015158l0.928139 0C110.976022 746.8324 274.238386 910.090671 478.534306 925.743162l0 0.928139c0 17.701151 14.341636 32.013111 32.009018 32.013111 17.672498 0 32.013111-14.31196 32.013111-32.013111l0-0.928139C746.852354 910.090671 910.108578 746.8324 925.76414 542.53648l0.928139 0c17.701151 0 32.013111-14.341636 32.013111-32.015158C958.70539 492.854964 944.393429 478.514351 926.692279 478.514351L926.692279 478.514351zM542.556435 861.722056l0-63.09399c0-17.700127-14.341636-32.013111-32.013111-32.013111-17.667382 0-32.009018 14.312984-32.009018 32.013111l0 63.09399c-169.019485-15.302521-303.888172-150.19986-319.185576-319.185576l63.09399 0c17.672498 0 32.014134-14.341636 32.014134-32.015158 0-17.666358-14.341636-32.006971-32.014134-32.006971l-63.09399 0c15.297404-169.020508 150.166091-303.888172 319.185576-319.186599l0 63.092967c0 17.672498 14.341636 32.014134 32.009018 32.014134 17.672498 0 32.013111-14.341636 32.013111-32.014134l0-63.092967c168.985716 15.297404 303.882032 150.165068 319.185576 319.186599l-63.09399 0c-17.701151 0-32.013111 14.340613-32.013111 32.006971 0 17.673521 14.31196 32.015158 32.013111 32.015158l63.09399 0C846.438467 711.522196 711.54215 846.419536 542.556435 861.722056L542.556435 861.722056zM542.556435 861.722056"
    p-id="2229" fill="#333"></path>
</svg>