<svg xmlns="http://www.w3.org/2000/svg" viewBox="0 0 18 18.73"><g id="图层_2" data-name="图层 2"><g id="Layer_1" data-name="Layer 1"><path d="M4.29,12.21l.78.79,2.16-2.16.84.83L5.91,13.83l.78.78-2.61.2.21-2.6Zm7,2.4.78-.78L9.87,11.67l.84-.83L12.87,13l.78-.79.21,2.61-2.61-.21ZM7.28,6H8.39V3.83H9.58V6h1.1L9,7.78Zm5,1.66.8-.78L10.91,4.68l.83-.84L13.9,6l.78-.78.2,2.61-2.61-.21Zm-8.7-2.4L4.35,6,6.51,3.84l.83.84L5.19,6.84,6,7.62l-2.61.21Z"/><path d="M9,4a2,2,0,1,1,2-2A2,2,0,0,1,9,4ZM2,11.71a2,2,0,1,1,2-2A2,2,0,0,1,2,11.71Zm7-.55a1.61,1.61,0,1,1,1.6-1.6A1.6,1.6,0,0,1,9,11.16Zm7,.55a2,2,0,1,1,2-2A2,2,0,0,1,16,11.71Zm-1.1,7a2,2,0,1,1,2-2A2,2,0,0,1,14.93,18.73Zm-12.31,0a2,2,0,1,1,2-2A2,2,0,0,1,2.62,18.73Z"/></g></g></svg>