<svg xmlns="http://www.w3.org/2000/svg" viewBox="0 0 30 34.07"><defs><style>.cls-1{fill:#fff;}</style></defs><g id="图层_2" data-name="图层 2"><g id="Layer_1" data-name="Layer 1"><path class="cls-1" d="M13.9.15a4.11,4.11,0,0,1,2.2,0L27,3.23a4.06,4.06,0,0,1,3,3.91V18.93a10.42,10.42,0,0,1-3.25,7.57l-.3.28-.58.55-.58.53-.56.51-.55.48-.54.47-.52.44c-.65.53-1.31,1-2,1.55l-.47.33c-2.3,1.62-4.17,2.43-5.67,2.43s-3.37-.81-5.67-2.43l-.47-.33c-.67-.5-1.33-1-2-1.55l-.52-.44-.54-.47-.55-.48-.56-.51-.58-.53-.29-.27-.59-.56A10.42,10.42,0,0,1,0,18.93V7.14A4.06,4.06,0,0,1,3,3.23Zm1.48,2.56a1.4,1.4,0,0,0-.76,0L3.68,5.78a1.43,1.43,0,0,0-1,1.36V18.93a7.77,7.77,0,0,0,2.42,5.65l.28.26.54.5.53.49.51.46.51.45.49.42.24.21.47.39.46.38.44.35c.15.11.29.23.44.33l.41.32.21.15.4.28.38.26.19.12.36.24A6.63,6.63,0,0,0,15,31.41a6.63,6.63,0,0,0,3.06-1.22l.36-.24.19-.12.38-.26.2-.14.41-.29.21-.16.42-.32.22-.17.44-.35.46-.38.24-.19.48-.41.24-.21.5-.43.51-.46.52-.47.53-.5.55-.51a7.77,7.77,0,0,0,2.42-5.65V7.14a1.4,1.4,0,0,0-1-1.35ZM15,10.64a2.73,2.73,0,0,1,1.25,5.17v5a1.22,1.22,0,0,1-2.43.11v-5A2.73,2.73,0,0,1,15,10.64Z"/></g></g></svg>