<svg xmlns="http://www.w3.org/2000/svg" xmlns:xlink="http://www.w3.org/1999/xlink" viewBox="0 0 1920 64"><defs><style>.cls-1,.cls-14,.cls-2{fill:none;}.cls-2{clip-rule:evenodd;}.cls-3{fill:#2c2c2c;opacity:0.95;}.cls-4{clip-path:url(#clip-path);}.cls-5{clip-path:url(#clip-path-2);}.cls-6{clip-path:url(#clip-path-3);}.cls-13,.cls-7,.cls-8{fill:#fff;}.cls-8{font-size:24px;}.cls-13,.cls-8{font-family:Futura-Bold, Futura;font-weight:700;}.cls-9{letter-spacing:0.02em;}.cls-10{letter-spacing:0.01em;}.cls-11{letter-spacing:0em;}.cls-12{letter-spacing:0.01em;}.cls-13{font-size:20px;}.cls-14{stroke:#fff;stroke-linecap:square;stroke-miterlimit:10;}.cls-15{letter-spacing:0.02em;}.cls-16{letter-spacing:0em;}.cls-17{letter-spacing:0.02em;}.cls-18{letter-spacing:0.01em;}.cls-19{letter-spacing:0.01em;}.cls-20{letter-spacing:0em;}.cls-21{letter-spacing:0.01em;}.cls-22{letter-spacing:0.01em;}.cls-23{letter-spacing:0.01em;}.cls-24{letter-spacing:0em;}.cls-25{letter-spacing:0.01em;}.cls-26{letter-spacing:0.01em;}.cls-27{letter-spacing:0.01em;}.cls-28{letter-spacing:-0.03em;}</style><clipPath id="clip-path"><rect class="cls-1" x="0.2" y="0.26" width="1200" height="64"/></clipPath><clipPath id="clip-path-2"><path class="cls-2" d="M1841.78,34.53a.8.8,0,1,1,.8.8A.81.81,0,0,1,1841.78,34.53Zm.82-2h-.06a.66.66,0,0,1-.6-.73,4.27,4.27,0,0,1,1.52-2.42c1.19-1.2,1.21-1.58,1.23-2a1.68,1.68,0,0,0-.49-1.28,2.06,2.06,0,0,0-1.5-.65h0a2,2,0,0,0-2,2,.67.67,0,0,1-.67.67.66.66,0,0,1-.66-.67,3.33,3.33,0,0,1,3.32-3.33,3.4,3.4,0,0,1,2.48,1.06,3,3,0,0,1,.86,2.27c0,.86-.31,1.53-1.63,2.85-.67.67-1.09,1.17-1.13,1.61A.67.67,0,0,1,1842.6,32.57Zm5.87,3a8.12,8.12,0,0,1-2.59,1.75,8.22,8.22,0,0,1-6.36,0,8.2,8.2,0,0,1-4.34-4.35,8.2,8.2,0,0,1,0-6.35,8.2,8.2,0,0,1,4.34-4.35,8.22,8.22,0,0,1,6.36,0,8.2,8.2,0,0,1,4.34,4.35,8.2,8.2,0,0,1,0,6.35A8.16,8.16,0,0,1,1848.47,35.53Zm-5.77-15.27a9.5,9.5,0,1,0,9.5,9.5A9.5,9.5,0,0,0,1842.7,20.26Z"/></clipPath><clipPath id="clip-path-3"><rect class="cls-1" x="838.2" y="-1.74" width="1200" height="64"/></clipPath></defs><g id="图层_2" data-name="图层 2"><g id="Layer_1" data-name="Layer 1"><rect class="cls-3" width="1920" height="64"/><g class="cls-5"><g class="cls-6"><rect class="cls-7" x="1832.2" y="19.26" width="21" height="21"/></g></g><text class="cls-8" transform="translate(67.56 36)">DP<tspan class="cls-9" x="35.14" y="0">V</tspan><tspan x="54.53" y="0">isC</tspan><tspan class="cls-10" x="90.07" y="0">r</tspan><tspan class="cls-11" x="101.4" y="0">ea</tspan><tspan class="cls-12" x="133.75" y="0">t</tspan><tspan x="142.92" y="0">or</tspan></text><text class="cls-13" transform="translate(1856.14 36)">Help</text><line class="cls-14" x1="1823.5" y1="17.5" x2="1823.5" y2="45"/><text class="cls-13" transform="translate(877.19 35.53)">I<tspan class="cls-15" x="7.08" y="0">m</tspan><tspan class="cls-16" x="27.28" y="0">posing </tspan><tspan class="cls-17" x="105.6" y="0">V</tspan><tspan x="121.76" y="0">isualiza</tspan><tspan class="cls-18" x="203.44" y="0">t</tspan><tspan class="cls-16" x="211.18" y="0">ion-inspi</tspan><tspan class="cls-19" x="299.97" y="0">r</tspan><tspan x="309.41" y="0">ed P</tspan><tspan class="cls-20" x="356.73" y="0">r</tspan><tspan x="366.05" y="0">ior Con</tspan><tspan class="cls-18" x="442.87" y="0">s</tspan><tspan class="cls-16" x="453.33" y="0">t</tspan><tspan class="cls-19" x="460.79" y="0">r</tspan><tspan class="cls-16" x="470.23" y="0">ain</tspan><tspan class="cls-21" x="503.63" y="0">t</tspan><tspan x="511.19" y="0">s </tspan><tspan class="cls-22" x="528.17" y="0">t</tspan><tspan x="535.81" y="0">o Di</tspan><tspan class="cls-23" x="578.43" y="0">ff</tspan><tspan class="cls-24" x="593.53" y="0">e</tspan><tspan class="cls-25" x="606.47" y="0">r</tspan><tspan class="cls-24" x="615.91" y="0">en</tspan><tspan class="cls-26" x="642.13" y="0">t</tspan><tspan x="649.87" y="0">ial P</tspan><tspan class="cls-20" x="696.45" y="0">r</tspan><tspan class="cls-27" x="705.77" y="0">i</tspan><tspan class="cls-28" x="712.07" y="0">v</tspan><tspan x="724.61" y="0">acy Da</tspan><tspan class="cls-27" x="798.72" y="0">t</tspan><tspan class="cls-16" x="806.38" y="0">a Publishing</tspan></text><path class="cls-7" d="M41.6,10.17a4.11,4.11,0,0,1,2.2,0l10.94,3.08a4.06,4.06,0,0,1,3,3.91V29a10.44,10.44,0,0,1-3.24,7.57l-.3.29-.59.54-.58.53-.56.51-.55.48-.54.47-.52.44c-.65.54-1.31,1-2,1.55l-.47.33c-2.3,1.62-4.17,2.43-5.67,2.43s-3.36-.81-5.67-2.43l-.46-.33c-.68-.5-1.34-1-2-1.55l-.53-.44-.54-.47L33,38.39l-.56-.51-.57-.53-.3-.27L31,36.52A10.45,10.45,0,0,1,27.7,29V17.16a4.06,4.06,0,0,1,3-3.91Zm1.48,2.56a1.4,1.4,0,0,0-.76,0L31.39,15.81a1.4,1.4,0,0,0-1,1.35V29a7.81,7.81,0,0,0,2.42,5.65l.28.26.54.5.53.49.51.46.51.45.49.42.24.21.47.39.46.38.45.35.43.33.42.32.2.15.4.28.38.26.19.13.37.23a6.6,6.6,0,0,0,3.05,1.22,6.63,6.63,0,0,0,3.06-1.22l.36-.23.19-.13.39-.26.19-.14.41-.29.21-.16.42-.32.22-.17.45-.35.46-.38.23-.19.48-.41L50,37l.5-.43.51-.46.52-.47.54-.5.54-.51A7.78,7.78,0,0,0,55.05,29V17.16a1.41,1.41,0,0,0-1-1.35Zm-.38,7.93A2.73,2.73,0,0,1,44,25.83v5a1.22,1.22,0,0,1-2.43.11v-5a2.73,2.73,0,0,1,1.18-5.2Z"/></g></g></svg>