<svg xmlns="http://www.w3.org/2000/svg" viewBox="0 0 12 12"><defs><style>.cls-1{fill:#323333;}</style></defs><g id="图层_2" data-name="图层 2"><g id="Layer_1" data-name="Layer 1"><path class="cls-1" d="M6.63,12a.38.38,0,0,1-.39-.39h0V3.9a.39.39,0,0,1,.1-.25L8.88.78H1.26L3.79,3.64a.39.39,0,0,1,.09.26V8.35l.83.83a.37.37,0,0,1,0,.54.39.39,0,0,1-.55,0l0,0-.93-.93a.5.5,0,0,1-.12-.28V4L.11.69A.41.41,0,0,1,0,.23.41.41,0,0,1,.4,0H9.74a.38.38,0,0,1,.35.23A.39.39,0,0,1,10,.69L7,4.09v7.56a.39.39,0,0,1-.36.35Z"/><path class="cls-1" d="M11.53,5.93H8.19a.39.39,0,0,1-.46-.3A.4.4,0,0,1,8,5.17h3.49a.38.38,0,0,1,.46.3.39.39,0,0,1-.3.46A.43.43,0,0,1,11.53,5.93Zm0,2.44H8.19a.39.39,0,0,1,0-.76h3.34a.38.38,0,0,1,.31.45A.38.38,0,0,1,11.53,8.37Zm0,2.43H8.19a.37.37,0,0,1-.3-.45.38.38,0,0,1,.3-.31h3.34a.39.39,0,0,1,.31.46A.38.38,0,0,1,11.53,10.8Z"/></g></g></svg>